<svg width="166" height="166" viewBox="0 0 166 166" fill="none" xmlns="http://www.w3.org/2000/svg">
<g filter="url(#filter0_dd_164_1139)">
<path d="M5.60156 6.82964C5.60156 3.61002 8.21158 1 11.4312 1H154.772C157.992 1 160.602 3.61002 160.602 6.82963V151.17C160.602 154.39 157.992 157 154.772 157H11.4312C8.21158 157 5.60156 154.39 5.60156 151.17V6.82964Z" fill="white" shape-rendering="crispEdges"/>
<path fill-rule="evenodd" clip-rule="evenodd" d="M40.7937 108.178H125.409V129H40.7937V108.178Z" fill="#CF4044"/>
<path fill-rule="evenodd" clip-rule="evenodd" d="M59.1756 113.787C59.3554 114.149 59.4486 114.542 59.4367 115.023L47.9284 115.027C47.5773 115.027 47.0268 115.225 46.8248 115.679C46.574 116.243 46.863 116.891 47.4334 117.14C47.6607 117.239 48.0638 117.226 48.0638 117.226H56.4356C57.9344 117.33 59.2697 118.281 59.7843 119.847C60.2326 121.21 60.0014 122.344 59.0886 123.458C58.0338 124.743 56.591 124.759 55.0004 124.757L45.7371 124.747C44.7316 124.745 43.8855 123.767 43.7425 122.763L43.7363 122.254L55.9659 122.265C56.3748 122.267 56.9 121.708 56.9138 121.137C56.9293 120.52 56.4982 119.933 55.8732 119.933H47.0636C45.5396 119.933 43.9867 118.521 43.7363 116.754C43.5334 115.324 44.0093 114.243 45.1321 113.32C45.9795 112.623 46.6232 112.425 47.809 112.423L55.9571 112.413C57.217 112.39 58.5861 112.604 59.1756 113.788V113.787ZM78.2237 112.465C80.193 112.467 81.7899 114.468 81.7366 116.561C81.6856 118.582 79.9023 120.447 78.2677 120.447H71.3964C70.3904 120.326 69.6189 119.606 69.2215 118.772C69.0861 118.446 69.0786 117.988 69.04 117.648L69.3951 117.655H77.7012C78.0595 117.655 78.4013 117.33 78.5713 116.923C78.7267 116.551 78.7165 116.249 78.5274 115.892C78.3183 115.497 77.9414 115.248 77.5702 115.248H68.3083L68.2213 115.334V123.439C68.2213 124.192 67.555 124.748 66.7692 124.733C66.0811 124.722 65.4378 124.169 65.4378 123.453V114.775C65.4378 114.057 65.7135 113.635 66.2303 113.151C66.7705 112.644 67.4822 112.453 68.0042 112.453L78.2233 112.465H78.2237ZM93.137 115.737C94.0488 116.99 95.0543 118.2 95.9249 119.503H89.7803L92.8373 115.722C92.8373 115.722 92.9208 115.594 92.9989 115.601C93.0739 115.608 93.137 115.737 93.137 115.737ZM95.6479 114.332C97.2336 116.51 100.434 120.595 102.056 122.899C102.26 123.42 102.021 123.979 101.752 124.403C101.315 124.806 100.597 124.891 100.099 124.661C99.3144 123.968 98.771 123.109 98.1428 122.34L87.5749 122.318L86.3256 123.991C85.9305 124.519 85.4302 124.881 84.6608 124.747C84.2608 124.666 83.8795 124.333 83.7463 123.973C83.5426 123.506 83.5643 123.065 83.8338 122.64L90.5306 113.873C91.0931 113.042 91.6999 112.449 92.7498 112.454C94.3995 112.476 94.511 112.885 95.6479 114.331V114.332ZM119.408 112.465C120.862 112.467 122.222 113.554 122.767 115.122C123.352 116.804 122.812 118.292 121.497 119.503C121.203 119.772 120.67 120.104 120.67 120.104L122.486 122.674C122.651 122.908 122.706 123.375 122.55 123.779C122.407 124.153 122.216 124.373 121.844 124.53C121.338 124.746 120.669 124.546 120.454 124.285C120.454 124.285 118.716 122.194 117.756 121.006C117.586 120.83 117.499 120.669 117.32 120.491L112.692 120.513C111.544 120.519 110.188 119.163 110.188 118.083V117.666L118.808 117.656C119.131 117.654 119.493 117.357 119.669 116.968C119.828 116.615 119.826 116.332 119.669 115.98C119.482 115.558 119.056 115.258 118.721 115.258L109.346 115.285L109.319 115.377V123.634C109.319 124.183 108.551 124.891 107.798 124.821C107.103 124.755 106.534 124.056 106.534 123.57L106.546 114.819C106.547 113.907 106.815 113.552 107.397 113.051C107.966 112.563 108.479 112.454 109.232 112.454L119.408 112.465H119.408Z" fill="white"/>
<path fill-rule="evenodd" clip-rule="evenodd" d="M61.5901 74.6912C60.4713 76.1459 59.3238 77.5792 58.1482 78.9892L79.186 78.947C79.0622 81.7091 79.7205 85.0757 78.4185 87.4455C77.1102 90.0448 74.0395 91.335 71.2009 91.3907C62.7172 90.6142 57.0752 83.2941 53.8487 76.3679C53.6058 75.8178 53.3856 75.2585 53.1881 74.6912C50.286 66.3757 51.8518 55.7096 57.3802 48.9014C65.5962 38.1985 80.1032 33.8746 93.6203 37.9752C101.864 40.5117 109.196 46.8075 112.816 54.8195C115.428 60.8696 115.507 68.1621 113.384 74.6917C112.023 78.876 109.757 82.7466 106.673 85.7758C102.863 88.9441 98.7562 92.2826 93.4671 91.2394C90.5815 90.5761 88.5092 88.6032 87.7847 85.9272C87.165 83.5968 87.319 81.3599 87.6315 78.947L109.098 78.9106L108.515 78.1885C107.52 77.0374 106.542 75.8713 105.582 74.6908C96.1223 63.049 88.554 50.1403 83.3307 36.6095C77.8471 49.9916 70.4054 63.2315 61.5892 74.6908L61.5901 74.6912ZM44.8434 74.6912C48.1853 87.0774 58.3387 97.232 70.8933 100.798C86.7037 105.708 104.589 100.475 114.811 88.5072C118.102 84.5641 120.473 79.7788 121.788 74.6912C123.995 66.1475 123.22 56.7493 118.803 49.0523C115.643 43.6212 110.998 38.5012 105.751 35.2429C93.9577 27.578 76.4563 26.9713 64.1361 33.4223C51.5091 39.7905 42.7972 53.1028 43.7126 67.5659C43.8343 69.9739 44.213 72.3622 44.8429 74.6912H44.8434Z" fill="#27824D"/>
</g>
<defs>
<filter id="filter0_dd_164_1139" x="0.601562" y="0" width="165" height="166" filterUnits="userSpaceOnUse" color-interpolation-filters="sRGB">
<feFlood flood-opacity="0" result="BackgroundImageFix"/>
<feColorMatrix in="SourceAlpha" type="matrix" values="0 0 0 0 0 0 0 0 0 0 0 0 0 0 0 0 0 0 127 0" result="hardAlpha"/>
<feMorphology radius="1" operator="erode" in="SourceAlpha" result="effect1_dropShadow_164_1139"/>
<feOffset dy="4"/>
<feGaussianBlur stdDeviation="3"/>
<feComposite in2="hardAlpha" operator="out"/>
<feColorMatrix type="matrix" values="0 0 0 0 0 0 0 0 0 0.698039 0 0 0 0 0.027451 0 0 0 0.1 0"/>
<feBlend mode="normal" in2="BackgroundImageFix" result="effect1_dropShadow_164_1139"/>
<feColorMatrix in="SourceAlpha" type="matrix" values="0 0 0 0 0 0 0 0 0 0 0 0 0 0 0 0 0 0 127 0" result="hardAlpha"/>
<feMorphology radius="2" operator="erode" in="SourceAlpha" result="effect2_dropShadow_164_1139"/>
<feOffset dy="2"/>
<feGaussianBlur stdDeviation="2"/>
<feComposite in2="hardAlpha" operator="out"/>
<feColorMatrix type="matrix" values="0 0 0 0 0.172549 0 0 0 0 0.454902 0 0 0 0 0.184314 0 0 0 0.1 0"/>
<feBlend mode="normal" in2="effect1_dropShadow_164_1139" result="effect2_dropShadow_164_1139"/>
<feBlend mode="normal" in="SourceGraphic" in2="effect2_dropShadow_164_1139" result="shape"/>
</filter>
</defs>
</svg>
