<svg width="165" height="166" viewBox="0 0 165 166" fill="none" xmlns="http://www.w3.org/2000/svg">
<g filter="url(#filter0_dd_164_1095)">
<path d="M5 6.82964C5 3.61002 7.61002 1 10.8296 1H154.17C157.39 1 160 3.61002 160 6.82963V151.17C160 154.39 157.39 157 154.17 157H10.8296C7.61002 157 5 154.39 5 151.17V6.82964Z" fill="white" shape-rendering="crispEdges"/>
<path d="M83.0844 87.9822C83.8744 87.9503 85.32 87.9025 86.2967 87.8813C87.2735 87.8547 89.7565 87.8441 91.8098 87.86C93.8631 87.8706 96.1986 87.9025 96.9973 87.9344C97.796 87.9609 98.9811 88.0088 99.6236 88.0406C100.266 88.0725 101.325 88.1309 101.968 88.1734C102.61 88.2159 103.561 88.2903 104.073 88.3381C104.585 88.3806 105.046 88.4337 105.093 88.4549C105.18 88.4921 105.167 88.593 104.616 91.7587C104.108 94.6907 104.038 95.0254 103.965 95.0413C103.917 95.0519 103.331 94.9616 102.662 94.8448C101.994 94.7279 101.017 94.558 100.492 94.473C99.9665 94.3827 99.0506 94.2393 98.4515 94.1543C97.8568 94.064 96.8888 93.9312 96.3027 93.8568C95.7167 93.7878 94.9266 93.6922 94.5446 93.6444C94.1626 93.6019 93.3422 93.5222 92.7214 93.4638C92.1006 93.4053 91.0849 93.3204 90.4641 93.2726C89.8433 93.2301 88.9057 93.1716 88.3804 93.1398C87.8551 93.1132 86.4964 93.0601 85.3634 93.0282C84.2087 92.9963 82.5201 92.9857 81.5216 93.0017C80.5449 93.0229 79.2035 93.0601 78.548 93.0866C77.8925 93.1185 76.816 93.1769 76.1605 93.2194C75.505 93.2672 74.7062 93.3257 74.3937 93.3522C74.0768 93.3841 73.5472 93.4319 73.2216 93.4585C72.8917 93.4903 72.0452 93.5753 71.342 93.6444C70.6387 93.7187 69.662 93.825 69.1715 93.8887C68.6809 93.9471 67.8214 94.0534 67.2614 94.1277C66.7014 94.1968 65.6639 94.3402 64.9607 94.4464C64.2575 94.5473 63.2417 94.7014 62.7034 94.7917C62.1651 94.8767 61.2578 95.0307 60.6848 95.1369C60.1118 95.2378 59.2132 95.4078 58.6879 95.5087L58.6318 95.5201C58.1026 95.6271 57.2757 95.7943 56.7562 95.9071C56.2179 96.024 55.4192 96.2046 54.9764 96.3055C54.5336 96.4064 53.6567 96.6242 53.0229 96.7835C52.3891 96.9429 51.3256 97.2297 50.6571 97.4209C49.9886 97.6068 48.886 97.9415 48.2044 98.1539C47.5229 98.3717 46.6851 98.6479 46.3378 98.7701C45.9905 98.8869 45.4739 99.0728 45.1874 99.1737C44.9009 99.28 44.1803 99.5509 43.5812 99.7846C42.9865 100.013 42.0576 100.39 41.5193 100.618C40.981 100.852 40.1432 101.224 39.6526 101.452C39.1621 101.681 38.3547 102.074 37.8511 102.329C37.3476 102.584 36.5792 102.993 36.1364 103.237C35.6936 103.476 34.7039 104.06 33.9312 104.528C32.8286 105.197 32.5204 105.367 32.503 105.303C32.49 105.261 32.5204 104.544 32.5725 103.71C32.6202 102.876 32.668 102.191 32.6766 102.191C32.681 102.185 32.9197 102.026 33.2063 101.84C33.4928 101.649 34.2568 101.171 34.8992 100.778C35.5417 100.379 36.4794 99.8271 36.9829 99.5402C37.4865 99.2534 38.1376 98.8922 38.4372 98.7329C38.7367 98.5682 39.301 98.2708 39.6961 98.0689C40.0911 97.8671 40.7553 97.5325 41.172 97.3253C41.5887 97.1182 42.5003 96.6932 43.1906 96.3798C43.8808 96.0665 44.7707 95.6734 45.1657 95.5034C45.5607 95.3388 46.3204 95.0307 46.8587 94.8129C47.397 94.6005 48.2261 94.2818 48.7036 94.1065C49.1811 93.9312 49.8453 93.6869 50.1796 93.57C50.5138 93.4531 51.1172 93.246 51.5253 93.1132C51.9333 92.9804 52.8406 92.6936 53.5439 92.4758C54.2471 92.2633 55.4409 91.9181 56.1919 91.7109C56.9429 91.5091 58.1062 91.2116 58.7748 91.047C59.4433 90.8876 60.5546 90.6327 61.2491 90.484C61.9437 90.3352 63.0724 90.1121 63.7669 89.9794C64.4615 89.8519 65.6205 89.65 66.3498 89.5332C67.0791 89.411 68.1036 89.257 68.6288 89.1879C69.1541 89.1136 69.866 89.018 70.2133 88.9755C70.5606 88.9277 71.3897 88.832 72.0582 88.763C72.7267 88.6886 73.8294 88.5824 74.5109 88.5187C75.1924 88.4602 76.4123 88.3646 77.224 88.3062C78.0358 88.2478 79.3641 88.1681 80.1759 88.1203C80.9877 88.0778 82.2943 88.0141 83.0844 87.9822Z" fill="#E1001A"/>
<path fill-rule="evenodd" clip-rule="evenodd" d="M52.5007 52.6874C53.6727 52.7034 54.0113 52.7246 54.4975 52.8202C54.8188 52.8787 55.318 53.0008 55.6045 53.0858C55.891 53.1708 56.299 53.3195 56.5161 53.4098C56.7332 53.5054 57.1021 53.6913 57.3409 53.8347C57.5796 53.9728 57.9617 54.2384 58.1874 54.4243C58.4131 54.6102 58.7821 54.982 59.0078 55.2423C59.2292 55.5026 59.5374 55.9222 59.6894 56.1718C59.8413 56.4215 60.0714 56.873 60.2016 57.1811C60.3318 57.4891 60.5098 57.9884 60.5923 58.2965C60.6748 58.6046 60.7833 59.0932 60.8311 59.3854C60.8788 59.6775 60.9396 60.1662 60.9656 60.4742C60.9873 60.7823 61.009 61.3294 61.009 61.6959C61.009 62.0624 60.9873 62.6361 60.9656 62.9707C60.9396 63.3053 60.8614 64.0171 60.792 64.5482C60.7182 65.0847 60.6618 65.5309 60.6618 65.5468C60.6618 65.5628 58.8646 65.5734 56.668 65.5734C53.5034 65.5734 52.6743 65.5575 52.6743 65.5043C52.6743 65.4725 52.7307 65.0582 52.8002 64.5907C52.8697 64.1233 52.9478 63.5072 52.9738 63.2203C52.9999 62.9388 53.0216 62.5298 53.0216 62.3174C53.0173 62.1102 52.9912 61.7543 52.9608 61.5366C52.9261 61.3188 52.8697 61.0426 52.8306 60.9257C52.7915 60.8089 52.7134 60.6336 52.6613 60.538C52.6092 60.4424 52.479 60.2937 52.3704 60.2087C52.2576 60.1184 52.0405 60.0174 51.8495 59.9643C51.6064 59.9006 51.4024 59.8847 51.0464 59.9112C50.786 59.9271 50.4517 59.9803 50.3085 60.0228C50.1652 60.0706 49.8917 60.2034 49.7007 60.3149C49.5097 60.4264 49.2276 60.6336 49.0713 60.7823C48.915 60.9257 48.6632 61.2072 48.5113 61.4091C48.3637 61.6109 48.1206 61.9934 47.9773 62.2536C47.8341 62.5139 47.6387 62.9229 47.5432 63.1566C47.4434 63.3903 47.2915 63.8206 47.196 64.1127C47.1048 64.4048 46.9615 64.9413 46.8791 65.3078C46.7966 65.6743 46.6924 66.248 46.6447 66.5826C46.5969 66.9172 46.5361 67.4431 46.5101 67.7511C46.4884 68.0592 46.4667 68.6488 46.4667 69.0631C46.4667 69.4827 46.4884 70.0564 46.5144 70.3379C46.5361 70.6247 46.5969 71.0975 46.6447 71.3896C46.6924 71.6817 46.8009 72.1704 46.8834 72.4785C46.9659 72.7865 47.1308 73.2752 47.2437 73.5674C47.3609 73.8595 47.5823 74.311 47.7342 74.5712C47.8818 74.8262 48.1857 75.2458 48.3984 75.5008C48.6111 75.7504 48.9367 76.0744 49.1147 76.2232C49.2927 76.3666 49.6356 76.595 49.8744 76.7331C50.1131 76.8712 50.5125 77.0624 50.7643 77.1527C51.016 77.243 51.4632 77.3705 51.7627 77.4342C52.2315 77.5351 52.4703 77.5457 53.5208 77.5511C54.2935 77.5511 54.8795 77.5245 55.127 77.482C55.344 77.4448 55.7521 77.3545 56.0386 77.2855C56.3251 77.2164 57.0674 76.9615 57.6882 76.7278C58.3089 76.494 58.8212 76.3081 58.8299 76.3134C58.8342 76.3241 58.6258 77.8379 58.361 79.6757C58.1006 81.5135 57.8748 83.0751 57.8618 83.1442C57.8444 83.2398 57.775 83.2876 57.4798 83.3938C57.2845 83.4629 56.82 83.6169 56.451 83.7338C56.082 83.8559 55.5003 84.0206 55.1574 84.1109C54.8188 84.1959 54.2544 84.3287 53.9028 84.403C53.5469 84.4774 52.9174 84.5836 52.5007 84.642C52.0839 84.7005 51.3199 84.7748 50.8077 84.8014C50.1522 84.8439 49.6139 84.8439 49.0062 84.8014C48.5287 84.7748 47.8949 84.7111 47.5953 84.6686C47.2958 84.6208 46.7705 84.5146 46.4233 84.4296C46.076 84.3446 45.5594 84.1906 45.2729 84.0843C44.9864 83.9781 44.5262 83.7816 44.2528 83.6488C43.9793 83.516 43.5278 83.2663 43.2543 83.0911C42.9808 82.9158 42.5771 82.6289 42.3644 82.4537C42.1517 82.2784 41.8261 81.9862 41.6482 81.8056C41.4702 81.6304 41.1663 81.2904 40.9753 81.0567C40.7843 80.823 40.4848 80.4034 40.3068 80.1272C40.1331 79.851 39.8857 79.4207 39.7598 79.1711C39.6339 78.9214 39.4646 78.5549 39.3778 78.3478C39.2953 78.1406 39.1564 77.7741 39.0739 77.5245C38.9915 77.2749 38.8612 76.8446 38.7874 76.5684C38.7136 76.2922 38.6095 75.8142 38.5487 75.5061C38.4922 75.198 38.4141 74.7093 38.375 74.4172C38.3403 74.1251 38.2839 73.5514 38.2578 73.1424C38.2274 72.6856 38.2188 71.9261 38.2318 71.1771C38.2448 70.5079 38.2882 69.6315 38.3273 69.2384C38.362 68.8453 38.4445 68.1495 38.5009 67.698C38.5617 67.2465 38.6615 66.5985 38.7223 66.2639C38.7831 65.9293 38.9003 65.3662 38.9784 65.0157C39.0609 64.6651 39.2042 64.0968 39.2997 63.7515C39.3995 63.4116 39.5471 62.9229 39.6339 62.6626C39.7208 62.4077 39.9248 61.8765 40.0854 61.4834C40.246 61.0904 40.4891 60.538 40.628 60.2618C40.7626 59.9856 41.0144 59.5182 41.1837 59.226C41.3573 58.9339 41.6395 58.4771 41.8175 58.2168C41.9954 57.9565 42.3514 57.4891 42.6032 57.1811C42.8593 56.873 43.25 56.4427 43.4757 56.2143C43.7015 55.9913 44.0965 55.6354 44.3613 55.4176C44.6261 55.1998 45.0428 54.8811 45.2946 54.7112C45.5464 54.5412 46.0065 54.265 46.3147 54.095C46.623 53.9303 47.1222 53.6966 47.4217 53.5745C47.7212 53.447 48.2378 53.2717 48.5721 53.1708C48.9063 53.0752 49.3751 52.953 49.6139 52.9052C49.8527 52.8574 50.2824 52.783 50.5689 52.7459C50.9336 52.6927 51.5109 52.6768 52.5007 52.6874ZM75.1607 52.6927C76.2286 52.7034 76.5932 52.7299 77.0491 52.8149C77.3616 52.8733 77.8478 52.9955 78.1343 53.0805C78.4208 53.1708 78.8289 53.3195 79.0459 53.4098C79.263 53.5001 79.7101 53.7391 80.0443 53.9463C80.3786 54.1481 80.8387 54.4774 81.0645 54.674C81.2902 54.8705 81.6766 55.2689 81.924 55.561C82.1758 55.8531 82.5014 56.2834 82.6489 56.5171C82.8009 56.7508 83.0266 57.1439 83.1525 57.3935C83.2784 57.6432 83.4824 58.1053 83.6083 58.4293C83.7342 58.7533 83.9122 59.3004 84.0077 59.6509C84.1032 60.0015 84.2334 60.5645 84.2942 60.8992C84.355 61.2338 84.4331 61.7597 84.4722 62.0677C84.5199 62.4395 84.5546 63.1194 84.5677 64.0861C84.5807 64.9891 84.572 65.8283 84.5416 66.2905C84.5112 66.6994 84.4418 67.4537 84.381 67.9636C84.3202 68.4735 84.2117 69.2384 84.1423 69.6633C84.0685 70.0882 83.9426 70.7681 83.8601 71.1771C83.7733 71.5861 83.5823 72.3776 83.4347 72.93C83.2827 73.4877 83.0483 74.2632 82.9094 74.6562C82.7748 75.0493 82.5361 75.6707 82.3841 76.0372C82.2322 76.4037 81.9804 76.9668 81.8242 77.2855C81.6635 77.6042 81.3944 78.1088 81.2251 78.4009C81.0558 78.693 80.7693 79.1445 80.5913 79.4101C80.4133 79.6757 80.053 80.1537 79.7882 80.4724C79.5234 80.7964 79.1023 81.2639 78.8506 81.5082C78.5988 81.7525 78.1604 82.1403 77.8738 82.374C77.5873 82.6024 77.0187 82.9901 76.615 83.2345C76.2112 83.4788 75.6122 83.7922 75.2909 83.925C74.9697 84.0631 74.4314 84.2543 74.0972 84.3499C73.7629 84.4508 73.2159 84.5783 72.8817 84.6367C72.5474 84.7005 71.9397 84.7695 71.536 84.8014C71.0411 84.8386 70.5332 84.8386 69.9949 84.8014C69.5521 84.7748 68.9357 84.7058 68.6275 84.6474C68.3193 84.5942 67.8201 84.4721 67.5205 84.3765C67.221 84.2862 66.7913 84.1268 66.5655 84.0206C66.3398 83.9197 65.9969 83.7444 65.8059 83.6328C65.6148 83.5213 65.3023 83.3141 65.1113 83.1707C64.9203 83.0326 64.6077 82.7724 64.4167 82.5971C64.2301 82.4218 63.9045 82.0765 63.7005 81.8269C63.4964 81.5773 63.1839 81.147 63.0102 80.8708C62.8366 80.5946 62.5848 80.1378 62.4503 79.8616C62.3157 79.5854 62.1377 79.1658 62.0465 78.9321C61.9597 78.6984 61.8165 78.2575 61.7296 77.9494C61.6385 77.6413 61.5213 77.1633 61.4648 76.8871C61.4084 76.6109 61.3216 76.0957 61.2738 75.7451C61.2261 75.3945 61.1653 74.7465 61.1349 74.311C61.1045 73.8064 61.0915 73.084 61.1089 72.3457C61.1219 71.703 61.1653 70.8531 61.2 70.4601C61.2391 70.067 61.2912 69.5783 61.3129 69.3712C61.339 69.164 61.4128 68.6647 61.4692 68.2557C61.53 67.8468 61.6558 67.1297 61.747 66.6623C61.8382 66.1948 61.9944 65.4884 62.0943 65.0953C62.1941 64.7023 62.3721 64.0543 62.4937 63.6612C62.6152 63.2681 62.854 62.5723 63.0233 62.1208C63.1926 61.6694 63.466 61.0107 63.631 60.6602C63.796 60.3096 64.0608 59.7837 64.2214 59.4916C64.382 59.1995 64.6511 58.7427 64.8161 58.4824C64.9854 58.2221 65.2849 57.7866 65.4846 57.521C65.6843 57.2554 66.0359 56.8305 66.2617 56.5755C66.4874 56.3153 66.8911 55.9063 67.1516 55.6672C67.412 55.4229 67.8461 55.067 68.1066 54.8705C68.367 54.674 68.7491 54.4137 68.9531 54.2862C69.1571 54.1641 69.5652 53.941 69.8647 53.7922C70.1642 53.6488 70.5723 53.4629 70.7763 53.3886C70.9803 53.3142 71.3797 53.1867 71.6662 53.0964C71.9527 53.0114 72.4823 52.8946 72.8383 52.8308C73.1986 52.7724 73.5676 52.714 73.6631 52.6981C73.7586 52.6874 74.4314 52.6821 75.1607 52.6927ZM73.229 60.0759C73.0857 60.1237 72.8426 60.2458 72.6863 60.3415C72.5301 60.4371 72.2783 60.6389 72.122 60.7876C71.9657 60.9417 71.7357 61.2126 71.6098 61.3932C71.4839 61.5737 71.3016 61.8659 71.2061 62.0412C71.1106 62.2165 70.9065 62.6733 70.7546 63.0504C70.5983 63.4275 70.3682 64.1339 70.238 64.6173C70.1034 65.1007 69.9298 65.8177 69.8473 66.2108C69.7648 66.6038 69.6259 67.3581 69.5391 67.8839C69.4523 68.4098 69.3264 69.2703 69.2569 69.7961C69.1875 70.322 69.0963 71.0656 69.0616 71.4427C69.0269 71.8198 68.9835 72.5528 68.9704 73.0627C68.9531 73.663 68.9618 74.1994 68.9965 74.5766C69.0225 74.8953 69.0876 75.3414 69.1311 75.5592C69.1788 75.777 69.2743 76.101 69.3438 76.2763C69.4089 76.4516 69.5435 76.7012 69.639 76.834C69.7301 76.9668 69.9211 77.1474 70.0644 77.243C70.2033 77.3333 70.4724 77.4448 70.6591 77.4926C70.8414 77.5404 71.18 77.5776 71.4057 77.5776C71.6315 77.5776 71.9701 77.5404 72.1567 77.4926C72.3391 77.4501 72.6082 77.3545 72.7515 77.2802C72.8947 77.2111 73.1204 77.073 73.2507 76.9774C73.3809 76.8871 73.6544 76.6056 73.8628 76.3559C74.0755 76.101 74.3446 75.7079 74.4792 75.453C74.6094 75.2033 74.8004 74.7996 74.9003 74.55C75.0044 74.3004 75.1694 73.8329 75.2736 73.5142C75.3734 73.1955 75.5297 72.6431 75.6165 72.2926C75.7033 71.942 75.8423 71.3205 75.9204 70.9115C76.0029 70.5026 76.1157 69.8705 76.1765 69.504C76.2373 69.1375 76.3328 68.4788 76.3936 68.0433C76.4543 67.6077 76.5455 66.8535 76.5932 66.3701C76.6453 65.8868 76.6974 65.0157 76.7105 64.4314C76.7278 63.7303 76.7191 63.1779 76.6801 62.8114C76.654 62.5033 76.5889 62.073 76.5455 61.8553C76.4977 61.6375 76.3979 61.3135 76.3284 61.1382C76.2546 60.9629 76.1157 60.7133 76.0159 60.5911C75.916 60.4636 75.725 60.2937 75.5948 60.2087C75.4646 60.129 75.2041 60.0228 75.0218 59.975C74.8351 59.9271 74.5009 59.8953 74.2838 59.8953C74.0624 59.9006 73.7933 59.9218 73.6848 59.9431C73.5762 59.9643 73.3722 60.0228 73.229 60.0759ZM99.2533 52.6927C100.352 52.7034 100.681 52.7246 101.185 52.8255C101.519 52.8893 102.01 53.0061 102.27 53.0911C102.531 53.1761 102.921 53.3195 103.138 53.4098C103.356 53.5001 103.781 53.7285 104.094 53.9144C104.406 54.1003 104.844 54.4084 105.07 54.5996C105.296 54.7908 105.63 55.1095 105.808 55.3061C105.986 55.5026 106.277 55.8585 106.455 56.0922C106.629 56.3259 106.915 56.7774 107.093 57.1014C107.267 57.4254 107.497 57.9034 107.61 58.1637C107.718 58.424 107.883 58.8808 107.979 59.1729C108.07 59.465 108.217 60.0281 108.3 60.4211C108.382 60.8142 108.478 61.3666 108.517 61.6428C108.556 61.919 108.608 62.397 108.634 62.7051C108.665 63.0132 108.686 63.8152 108.686 64.4845C108.686 65.1538 108.66 66.0036 108.634 66.3701C108.604 66.7366 108.534 67.4378 108.478 67.937C108.417 68.4363 108.313 69.2118 108.235 69.6633C108.161 70.1148 108.026 70.8478 107.935 71.2834C107.844 71.7242 107.675 72.4254 107.566 72.8503C107.453 73.2752 107.258 73.9339 107.132 74.311C107.006 74.6881 106.807 75.2511 106.689 75.5592C106.568 75.8673 106.342 76.4037 106.177 76.7543C106.017 77.1049 105.713 77.7051 105.504 78.0822C105.292 78.4593 104.918 79.0702 104.667 79.4367C104.419 79.8032 104.02 80.329 103.785 80.6052C103.547 80.8814 103.208 81.2532 103.03 81.4338C102.852 81.6091 102.565 81.8747 102.401 82.0234C102.236 82.1721 101.923 82.4271 101.706 82.5865C101.489 82.7458 101.098 83.0061 100.838 83.1707C100.577 83.3301 100.234 83.5266 100.078 83.6063C99.9218 83.686 99.5702 83.8453 99.2967 83.9622C99.0232 84.0737 98.5718 84.2384 98.2983 84.3234C98.0248 84.4083 97.6254 84.5146 97.4084 84.5571C97.1913 84.6049 96.8614 84.6633 96.6704 84.6952C96.4794 84.727 96.0019 84.7748 95.6068 84.8014C95.1337 84.8386 94.6214 84.8386 94.0875 84.8014C93.6447 84.7748 93.0326 84.7058 92.7201 84.6474C92.4075 84.5942 91.9517 84.4827 91.6999 84.4083C91.4482 84.3287 91.1182 84.2171 90.962 84.1534C90.8057 84.095 90.4801 83.9356 90.237 83.8134C89.9896 83.686 89.6076 83.4576 89.3905 83.3035C89.1691 83.1495 88.7915 82.8467 88.5527 82.6236C88.314 82.4059 87.945 82.0128 87.7323 81.7472C87.5196 81.4816 87.2157 81.0567 87.0551 80.7911C86.8944 80.5256 86.6687 80.1219 86.5559 79.8882C86.4386 79.6544 86.2607 79.2348 86.1521 78.9586C86.048 78.6824 85.8787 78.1406 85.7745 77.7635C85.6703 77.3864 85.5357 76.7862 85.4749 76.4356C85.4142 76.0851 85.3317 75.4848 85.2926 75.1077C85.2362 74.6137 85.2145 74.0188 85.2145 73.0096C85.2145 72.2129 85.2362 71.3152 85.2666 70.9381C85.297 70.5716 85.3708 69.8705 85.4315 69.3712C85.4923 68.8719 85.6095 68.0752 85.692 67.5918C85.7745 67.1084 85.9177 66.3701 86.0132 65.9452C86.1044 65.5203 86.2954 64.782 86.43 64.2986C86.5645 63.8152 86.7903 63.0876 86.9335 62.6786C87.0768 62.2696 87.3199 61.6375 87.4761 61.271C87.6324 60.9045 87.9059 60.3202 88.0839 59.9696C88.2619 59.6191 88.5701 59.072 88.7698 58.748C88.9651 58.424 89.2907 57.9353 89.4947 57.6591C89.6987 57.3829 90.0287 56.9633 90.2283 56.7349C90.428 56.5012 90.7796 56.1294 91.0054 55.9063C91.2311 55.6885 91.6131 55.3485 91.8519 55.152C92.0906 54.9608 92.4596 54.6846 92.6767 54.5465C92.8937 54.4031 93.267 54.1694 93.5145 54.0313C93.7576 53.8932 94.2177 53.6701 94.5346 53.5373C94.8472 53.4045 95.3334 53.2292 95.6068 53.1442C95.8803 53.0646 96.3492 52.9477 96.6487 52.884C96.9482 52.8255 97.3563 52.7512 97.5603 52.7246C97.7643 52.6981 98.524 52.6821 99.2533 52.6927ZM97.3215 60.0759C97.1783 60.1237 96.9352 60.2458 96.7789 60.3415C96.6226 60.4371 96.4273 60.5805 96.3448 60.6548C96.2623 60.7345 96.0583 60.9576 95.8977 61.1541C95.7327 61.3507 95.4766 61.7384 95.3247 62.0146C95.1727 62.2908 94.9383 62.7954 94.8081 63.13C94.6779 63.4647 94.4652 64.1339 94.3306 64.6173C94.2004 65.1007 94.0224 65.8177 93.9399 66.2108C93.8574 66.6038 93.7315 67.289 93.6577 67.7246C93.5883 68.1654 93.4798 68.8825 93.419 69.3181C93.3582 69.7589 93.2714 70.4866 93.2193 70.9381C93.1715 71.3896 93.1108 72.181 93.0891 72.6909C93.0587 73.3283 93.0587 73.8382 93.0934 74.311C93.1151 74.6881 93.1629 75.1555 93.1976 75.3467C93.2323 75.538 93.2844 75.7876 93.3191 75.9045C93.3539 76.0213 93.432 76.2444 93.4971 76.3984C93.5579 76.5472 93.6968 76.7809 93.8053 76.9137C93.9139 77.0465 94.1049 77.2111 94.2307 77.2855C94.3523 77.3545 94.5954 77.4501 94.7603 77.4979C94.9253 77.5404 95.2552 77.5776 95.4896 77.5776C95.7197 77.5776 96.0627 77.5404 96.2493 77.4926C96.4316 77.4501 96.7008 77.3545 96.844 77.2802C96.9873 77.2111 97.213 77.073 97.3432 76.9774C97.4735 76.8871 97.747 76.6056 97.9553 76.3559C98.1767 76.0904 98.4372 75.7079 98.5848 75.4264C98.7237 75.1608 98.9494 74.6615 99.084 74.311C99.2186 73.9604 99.4269 73.3283 99.5485 72.9034C99.6657 72.4785 99.8437 71.7508 99.9392 71.2834C100.039 70.8159 100.187 70.0139 100.269 69.504C100.352 68.9941 100.46 68.277 100.512 67.9105C100.564 67.544 100.642 66.8854 100.69 66.4498C100.738 66.0089 100.794 65.2494 100.816 64.7501C100.846 64.1286 100.846 63.6293 100.816 63.1566C100.79 62.7795 100.729 62.2696 100.686 62.0252C100.638 61.7862 100.543 61.441 100.477 61.2604C100.412 61.0745 100.26 60.7983 100.143 60.6389C100.022 60.4849 99.8176 60.2883 99.6874 60.2087C99.5572 60.129 99.2967 60.0228 99.1144 59.975C98.9277 59.9271 98.5935 59.8953 98.3764 59.8953C98.155 59.9006 97.8859 59.9218 97.7773 59.9431C97.6688 59.9643 97.4648 60.0228 97.3215 60.0759ZM125.343 52.6874C126.12 52.7034 126.424 52.7299 126.819 52.8202C127.092 52.884 127.544 53.0274 127.817 53.1389C128.091 53.2505 128.481 53.447 128.685 53.5692C128.889 53.6913 129.219 53.9303 129.423 54.095C129.627 54.2597 129.966 54.5943 130.179 54.8439C130.391 55.0936 130.695 55.5132 130.856 55.7735C131.016 56.0337 131.229 56.4321 131.333 56.6499C131.433 56.8677 131.598 57.2873 131.702 57.5794C131.802 57.8716 131.937 58.3124 132.002 58.5621C132.063 58.8117 132.149 59.2154 132.197 59.465C132.245 59.7147 132.323 60.2512 132.375 60.6602C132.449 61.2391 132.475 61.7384 132.492 62.9441C132.51 63.9162 132.497 64.7873 132.466 65.3078C132.436 65.7593 132.375 66.5135 132.327 66.981C132.28 67.4484 132.184 68.2504 132.115 68.7603C132.041 69.2703 131.915 70.0617 131.833 70.5132C131.75 70.9647 131.607 71.6817 131.511 72.1067C131.416 72.5316 131.216 73.3071 131.069 73.8329C130.925 74.3588 130.687 75.1183 130.548 75.5167C130.409 75.9204 130.187 76.5047 130.057 76.8181C129.931 77.1367 129.71 77.6307 129.575 77.9229C129.436 78.215 129.171 78.7302 128.985 79.0649C128.798 79.3995 128.481 79.9253 128.282 80.2334C128.078 80.5415 127.661 81.0939 127.357 81.4604C127.049 81.8269 126.61 82.2943 126.385 82.5015C126.159 82.7086 125.794 83.0167 125.581 83.1814C125.369 83.346 124.987 83.601 124.735 83.7497C124.483 83.8984 124.027 84.1215 123.715 84.249C123.402 84.3765 122.907 84.5358 122.608 84.6102C122.308 84.6845 121.783 84.7695 121.436 84.8014C120.989 84.8439 120.637 84.8439 120.22 84.8014C119.899 84.7695 119.448 84.6952 119.222 84.6367C118.996 84.5783 118.632 84.4615 118.419 84.3712C118.206 84.2862 117.872 84.1215 117.681 84.0047C117.49 83.8931 117.186 83.686 117.008 83.5425C116.83 83.3991 116.552 83.1442 116.392 82.9795C116.114 82.6927 116.096 82.6821 116.075 82.7936C116.062 82.8627 115.602 86.0337 115.055 89.8474C114.508 93.6612 114.047 96.8109 114.034 96.8428C114.017 96.8959 113.214 96.9119 110.214 96.9119C108.126 96.9119 106.416 96.9012 106.416 96.8853C106.416 96.8694 107.822 87.0907 109.541 75.1449C111.265 63.2044 112.68 53.3939 112.689 53.3461C112.71 53.2558 112.927 53.2505 116.509 53.2505C120.099 53.2505 120.307 53.2558 120.307 53.3408C120.307 53.3939 120.264 53.7444 120.107 54.8174L120.568 54.4562C120.819 54.2597 121.249 53.9569 121.523 53.7869C121.796 53.617 122.209 53.3886 122.434 53.277C122.66 53.1708 123.059 53.0114 123.324 52.9318C123.589 52.8468 123.928 52.7565 124.084 52.7246C124.24 52.6981 124.804 52.6821 125.343 52.6874ZM121.414 60.7345C121.319 60.8036 121.123 60.9735 120.98 61.1169C120.837 61.2604 120.598 61.5472 120.455 61.7597C120.307 61.9721 120.081 62.3492 119.947 62.5989C119.817 62.8485 119.591 63.3372 119.448 63.6878C119.304 64.0383 119.1 64.6014 118.992 64.936C118.883 65.2706 118.718 65.8602 118.623 66.2373C118.527 66.6145 118.388 67.2412 118.31 67.6184C118.236 67.9955 118.119 68.7125 118.05 69.2118C117.98 69.7111 117.889 70.4601 117.846 70.885C117.798 71.3949 117.772 72.0589 117.772 72.8503C117.772 73.5992 117.789 74.1941 117.824 74.4438C117.859 74.6615 117.92 75.0227 117.972 75.2405C118.019 75.4583 118.115 75.7823 118.189 75.9576C118.258 76.1329 118.384 76.3772 118.467 76.4994C118.566 76.6534 118.71 76.7862 118.909 76.8977C119.152 77.0411 119.265 77.073 119.591 77.0889C119.851 77.1049 120.103 77.0836 120.351 77.0252C120.581 76.9668 120.858 76.8499 121.089 76.7118C121.332 76.5631 121.557 76.3719 121.761 76.1382C121.926 75.947 122.187 75.5751 122.33 75.3149C122.478 75.0546 122.682 74.6403 122.782 74.3906C122.886 74.141 123.055 73.663 123.159 73.3283C123.263 72.9937 123.433 72.3457 123.541 71.8942C123.645 71.4427 123.802 70.6885 123.884 70.221C123.967 69.7536 124.084 69.0472 124.145 68.6541C124.205 68.2611 124.292 67.5546 124.344 67.0872C124.392 66.6198 124.457 65.7965 124.483 65.2547C124.522 64.5164 124.522 64.0861 124.483 63.5284C124.453 63.0982 124.388 62.5617 124.323 62.2536C124.262 61.9615 124.149 61.5791 124.071 61.4038C123.993 61.2285 123.854 60.9948 123.758 60.8832C123.663 60.7717 123.476 60.6177 123.346 60.538C123.142 60.4211 123.038 60.3999 122.608 60.3839C122.174 60.368 122.074 60.3839 121.848 60.4902C121.705 60.5539 121.51 60.6655 121.414 60.7345Z" fill="#F39300"/>
</g>
<defs>
<filter id="filter0_dd_164_1095" x="0" y="0" width="165" height="166" filterUnits="userSpaceOnUse" color-interpolation-filters="sRGB">
<feFlood flood-opacity="0" result="BackgroundImageFix"/>
<feColorMatrix in="SourceAlpha" type="matrix" values="0 0 0 0 0 0 0 0 0 0 0 0 0 0 0 0 0 0 127 0" result="hardAlpha"/>
<feMorphology radius="1" operator="erode" in="SourceAlpha" result="effect1_dropShadow_164_1095"/>
<feOffset dy="4"/>
<feGaussianBlur stdDeviation="3"/>
<feComposite in2="hardAlpha" operator="out"/>
<feColorMatrix type="matrix" values="0 0 0 0 0 0 0 0 0 0.698039 0 0 0 0 0.027451 0 0 0 0.1 0"/>
<feBlend mode="normal" in2="BackgroundImageFix" result="effect1_dropShadow_164_1095"/>
<feColorMatrix in="SourceAlpha" type="matrix" values="0 0 0 0 0 0 0 0 0 0 0 0 0 0 0 0 0 0 127 0" result="hardAlpha"/>
<feMorphology radius="2" operator="erode" in="SourceAlpha" result="effect2_dropShadow_164_1095"/>
<feOffset dy="2"/>
<feGaussianBlur stdDeviation="2"/>
<feComposite in2="hardAlpha" operator="out"/>
<feColorMatrix type="matrix" values="0 0 0 0 0.172549 0 0 0 0 0.454902 0 0 0 0 0.184314 0 0 0 0.1 0"/>
<feBlend mode="normal" in2="effect1_dropShadow_164_1095" result="effect2_dropShadow_164_1095"/>
<feBlend mode="normal" in="SourceGraphic" in2="effect2_dropShadow_164_1095" result="shape"/>
</filter>
</defs>
</svg>
