<svg width="166" height="167" viewBox="0 0 166 167" fill="none" xmlns="http://www.w3.org/2000/svg">
<g filter="url(#filter0_dd_164_1129)">
<path d="M5.65137 7.55254C5.65137 4.33292 8.26138 1.7229 11.481 1.7229H154.822C158.041 1.7229 160.651 4.33292 160.651 7.55253V151.893C160.651 155.113 158.041 157.723 154.822 157.723H11.481C8.26138 157.723 5.65137 155.113 5.65137 151.893V7.55254Z" fill="white" shape-rendering="crispEdges"/>
<path d="M33.1514 29.7229V129.723H133.151V29.7229H33.1514Z" fill="white"/>
<path d="M34.0217 30.5925H132.283V128.853H34.0217V30.5925Z" fill="#0050AA"/>
<path d="M83.1499 33.202C73.9471 33.2003 64.9504 35.9276 57.2976 41.039C49.6447 46.1504 43.6794 53.4163 40.1561 61.918C36.6327 70.4197 35.7095 79.7752 37.5032 88.8016C39.2969 97.8279 43.7269 106.12 50.2331 112.628C56.7393 119.137 65.0294 123.57 74.0551 125.367C83.0808 127.164 92.4367 126.244 100.94 122.724C109.443 119.204 116.711 113.242 121.825 105.591C126.939 97.9397 129.67 88.944 129.672 79.7412C129.669 67.4019 124.768 55.5685 116.044 46.8417C107.321 38.1149 95.4892 33.2089 83.1499 33.202Z" fill="#E60A14"/>
<path fill-rule="evenodd" clip-rule="evenodd" d="M83.1533 36.1403C74.5342 36.1403 66.1086 38.6959 58.9419 43.484C51.7751 48.2722 46.189 55.0778 42.8899 63.0405C39.5907 71.0032 38.7266 79.7653 40.4068 88.219C42.0871 96.6727 46.2362 104.438 52.3296 110.534C58.423 116.63 66.187 120.782 74.6401 122.466C83.0931 124.15 91.8556 123.289 99.8196 119.993C107.784 116.697 114.591 111.114 119.382 103.949C124.173 96.7839 126.732 88.3593 126.736 79.7402C126.736 68.1798 122.145 57.0926 113.972 48.9165C105.799 40.7405 94.7137 36.1449 83.1533 36.1403Z" fill="#FFF000"/>
<path fill-rule="evenodd" clip-rule="evenodd" d="M80.4493 80.9488L72.7537 73.2532L63.8841 82.1401V85.1227L66.1189 82.8793L72.3102 89.088L70.0233 91.3662L71.5102 92.8619L83.8928 80.4619V77.488L80.4493 80.9488Z" fill="#E60A14"/>
<path fill-rule="evenodd" clip-rule="evenodd" d="M44.5257 71.6362H58.2301V74.5928H55.9431V84.158L63.8822 79.7406V87.8362H44.5257V84.8623H46.8214V74.5928H44.5257V71.6362ZM102.308 71.6362V74.5928H104.604V84.8623H102.308V87.8362H121.682V79.7406L113.734 84.158V74.5928H116.03V71.6362H102.308Z" fill="#0050AA"/>
<path fill-rule="evenodd" clip-rule="evenodd" d="M71.6217 62.4272C72.5873 62.4272 73.5311 62.7137 74.3337 63.2505C75.1363 63.7873 75.7616 64.5502 76.1303 65.4426C76.499 66.335 76.5946 67.3168 76.4049 68.2635C76.2153 69.2103 75.7489 70.0795 75.065 70.761C74.381 71.4426 73.5101 71.9058 72.5627 72.0921C71.6153 72.2783 70.6339 72.1792 69.7428 71.8073C68.8517 71.4354 68.0911 70.8075 67.5571 70.003C67.0232 69.1985 66.74 68.2536 66.7435 67.288C66.7435 66.6482 66.8698 66.0147 67.1151 65.4238C67.3605 64.8329 67.7201 64.2963 68.1733 63.8447C68.6265 63.3931 69.1644 63.0354 69.7562 62.7922C70.348 62.5489 70.9819 62.4249 71.6217 62.4272Z" fill="#E60A14"/>
<path d="M81.6316 71.6362V74.5928H83.9185V84.8623H81.6055V87.8362H94.649C104.336 87.8362 104.458 71.6362 94.6751 71.6362H81.6316ZM92.1881 76.6797H92.7359C95.5968 76.6797 95.5968 82.7667 92.8403 82.7667H92.1881V76.6797Z" fill="#0050AA"/>
</g>
<defs>
<filter id="filter0_dd_164_1129" x="0.651367" y="0.7229" width="165" height="166" filterUnits="userSpaceOnUse" color-interpolation-filters="sRGB">
<feFlood flood-opacity="0" result="BackgroundImageFix"/>
<feColorMatrix in="SourceAlpha" type="matrix" values="0 0 0 0 0 0 0 0 0 0 0 0 0 0 0 0 0 0 127 0" result="hardAlpha"/>
<feMorphology radius="1" operator="erode" in="SourceAlpha" result="effect1_dropShadow_164_1129"/>
<feOffset dy="4"/>
<feGaussianBlur stdDeviation="3"/>
<feComposite in2="hardAlpha" operator="out"/>
<feColorMatrix type="matrix" values="0 0 0 0 0 0 0 0 0 0.698039 0 0 0 0 0.027451 0 0 0 0.1 0"/>
<feBlend mode="normal" in2="BackgroundImageFix" result="effect1_dropShadow_164_1129"/>
<feColorMatrix in="SourceAlpha" type="matrix" values="0 0 0 0 0 0 0 0 0 0 0 0 0 0 0 0 0 0 127 0" result="hardAlpha"/>
<feMorphology radius="2" operator="erode" in="SourceAlpha" result="effect2_dropShadow_164_1129"/>
<feOffset dy="2"/>
<feGaussianBlur stdDeviation="2"/>
<feComposite in2="hardAlpha" operator="out"/>
<feColorMatrix type="matrix" values="0 0 0 0 0.172549 0 0 0 0 0.454902 0 0 0 0 0.184314 0 0 0 0.1 0"/>
<feBlend mode="normal" in2="effect1_dropShadow_164_1129" result="effect2_dropShadow_164_1129"/>
<feBlend mode="normal" in="SourceGraphic" in2="effect2_dropShadow_164_1129" result="shape"/>
</filter>
</defs>
</svg>
