<svg width="166" height="167" viewBox="0 0 166 167" fill="none" xmlns="http://www.w3.org/2000/svg">
<g filter="url(#filter0_dd_164_1087)">
<path d="M5.65137 7.47063C5.65137 4.25101 8.26138 1.64099 11.481 1.64099H154.822C158.041 1.64099 160.651 4.25101 160.651 7.47062V151.811C160.651 155.031 158.041 157.641 154.822 157.641H11.481C8.26138 157.641 5.65137 155.031 5.65137 151.811V7.47063Z" fill="white" shape-rendering="crispEdges"/>
<path d="M48.9893 44.7092C48.8357 44.8659 48.7589 45.0225 48.6821 45.1009C43.4592 51.9166 40.6941 59.6725 40.2332 68.2118C39.926 75.1059 41.2317 81.6866 44.2272 87.8756C47.9908 95.5532 53.5209 101.586 60.9713 105.659C69.2665 110.203 78.0993 111.535 87.3162 109.811C96.6867 108.01 104.444 103.309 110.435 95.7882C118.5 85.6037 121.112 74.0091 118.5 61.2393C116.887 53.4835 113.124 46.8244 107.593 41.2621C100.22 33.898 91.3102 30.0592 81.018 29.6675C74.7966 29.4325 68.8056 30.7643 63.1219 33.4279C62.5842 33.6629 62.4306 33.9763 62.5842 34.5247C63.4291 38.3635 65.7333 48.7046 66.0406 50.0364H66.1942C66.4246 49.8798 66.7318 49.7231 66.9622 49.5664C72.7996 45.9626 79.0978 44.7092 85.7033 46.511C95.1506 49.018 101.372 55.1287 103.907 64.6864C105.212 69.5436 106.134 74.4792 107.209 79.4147C107.517 80.9032 107.901 82.3134 107.593 83.8802C106.902 87.719 103.83 90.4609 99.9895 90.6176C96.4563 90.7743 93.0768 88.0323 92.2319 84.4286C91.0798 79.493 89.9277 74.6358 88.9292 69.7003C87.7771 63.8246 82.7078 61.3177 78.7138 61.8661C73.6445 62.5712 69.9577 67.7417 71.033 72.834C71.8011 76.281 72.5692 79.6497 73.3373 83.0968C73.7981 85.2904 74.4126 87.4056 74.7198 89.5992C75.2575 93.8296 72.1852 97.6684 68.1144 98.2951C64.0436 98.9219 60.1264 96.1016 59.2815 91.9494C58.4366 88.0323 49.2965 46.276 48.9893 44.7092Z" fill="#01B0EA"/>
<path d="M80.941 129.632C98.3763 129.867 115.658 120.544 125.489 105.894C127.486 102.134 124.414 97.2767 120.19 98.0601C117.962 98.2951 116.964 100.254 115.658 101.821C114.122 103.857 112.432 105.659 110.589 107.383C96.9169 119.918 77.7151 122.268 61.7391 114.747C59.8957 113.964 58.3596 112.553 56.2858 113.102C54.9032 113.493 53.8279 114.12 53.2135 115.139C50.2948 120.466 54.596 123.208 58.4364 124.775C65.5795 127.908 73.1834 129.789 80.941 129.632Z" fill="#ED2026"/>
</g>
<defs>
<filter id="filter0_dd_164_1087" x="0.651367" y="0.640991" width="165" height="166" filterUnits="userSpaceOnUse" color-interpolation-filters="sRGB">
<feFlood flood-opacity="0" result="BackgroundImageFix"/>
<feColorMatrix in="SourceAlpha" type="matrix" values="0 0 0 0 0 0 0 0 0 0 0 0 0 0 0 0 0 0 127 0" result="hardAlpha"/>
<feMorphology radius="1" operator="erode" in="SourceAlpha" result="effect1_dropShadow_164_1087"/>
<feOffset dy="4"/>
<feGaussianBlur stdDeviation="3"/>
<feComposite in2="hardAlpha" operator="out"/>
<feColorMatrix type="matrix" values="0 0 0 0 0 0 0 0 0 0.698039 0 0 0 0 0.027451 0 0 0 0.1 0"/>
<feBlend mode="normal" in2="BackgroundImageFix" result="effect1_dropShadow_164_1087"/>
<feColorMatrix in="SourceAlpha" type="matrix" values="0 0 0 0 0 0 0 0 0 0 0 0 0 0 0 0 0 0 127 0" result="hardAlpha"/>
<feMorphology radius="2" operator="erode" in="SourceAlpha" result="effect2_dropShadow_164_1087"/>
<feOffset dy="2"/>
<feGaussianBlur stdDeviation="2"/>
<feComposite in2="hardAlpha" operator="out"/>
<feColorMatrix type="matrix" values="0 0 0 0 0.172549 0 0 0 0 0.454902 0 0 0 0 0.184314 0 0 0 0.1 0"/>
<feBlend mode="normal" in2="effect1_dropShadow_164_1087" result="effect2_dropShadow_164_1087"/>
<feBlend mode="normal" in="SourceGraphic" in2="effect2_dropShadow_164_1087" result="shape"/>
</filter>
</defs>
</svg>
