<svg width="166" height="167" viewBox="0 0 166 167" fill="none" xmlns="http://www.w3.org/2000/svg">
<g filter="url(#filter0_dd_164_1121)">
<path d="M5.65137 7.66265C5.65137 4.44303 8.26138 1.83301 11.481 1.83301H154.822C158.041 1.83301 160.651 4.44302 160.651 7.66264V152.003C160.651 155.223 158.041 157.833 154.822 157.833H11.481C8.26138 157.833 5.65137 155.223 5.65137 152.003V7.66265Z" fill="white" shape-rendering="crispEdges"/>
<path d="M33.1514 106.376V79.833V53.2904H133.151V106.376H33.1514Z" fill="#E3001B"/>
<path d="M47.8584 92.8197L47.8632 78.0218L47.868 63.2239L53.5241 63.2436C56.6371 63.2554 59.2617 63.2711 59.3526 63.2829C59.4436 63.2947 59.7885 63.3143 60.1189 63.3261C60.4494 63.3418 61.0528 63.3772 61.4599 63.4086C61.867 63.4401 62.3747 63.4833 62.5854 63.5068C62.7961 63.5304 63.208 63.5854 63.4954 63.6287C63.7827 63.6758 64.3143 63.7898 64.6687 63.8841C65.0231 63.9823 65.5069 64.1355 65.7463 64.2298C65.9858 64.3202 66.3258 64.4774 66.5126 64.5756C66.6994 64.6739 66.9867 64.8468 67.1544 64.9646C67.3268 65.0825 67.6046 65.3104 67.7722 65.4715C67.9398 65.6326 68.1745 65.888 68.299 66.0413C68.4187 66.1945 68.5912 66.4303 68.6774 66.5717C68.7636 66.7132 68.8881 66.9411 68.9551 67.0825C69.0174 67.224 69.1132 67.4715 69.1707 67.6326C69.2233 67.7937 69.3 68.1199 69.3335 68.3596C69.3718 68.5993 69.4197 68.9765 69.4341 69.2044C69.4532 69.4323 69.4772 69.6602 69.4867 69.7152C69.4963 69.7702 69.5299 70.8665 69.5586 72.1514C69.5921 73.617 69.6017 76.6937 69.5873 80.403C69.573 83.6565 69.549 86.4502 69.5299 86.6113C69.5155 86.7724 69.482 87.1536 69.4532 87.4561C69.4245 87.7587 69.3718 88.2027 69.3335 88.4385C69.2952 88.6742 69.2185 89.02 69.1611 89.2047C69.1084 89.3893 68.9982 89.6723 68.9216 89.8334C68.845 89.9945 68.7109 90.2342 68.6199 90.3638C68.5337 90.4935 68.3373 90.7332 68.1793 90.8943C68.026 91.0554 67.7482 91.2911 67.5662 91.413C67.3795 91.5348 67.049 91.7273 66.8239 91.8373C66.5988 91.9473 66.2013 92.1045 65.9379 92.191C65.6745 92.2735 65.2435 92.3874 64.98 92.4385C64.7166 92.4935 64.2856 92.5642 64.0222 92.5996C63.7588 92.631 63.2607 92.6743 62.9207 92.6978C62.5758 92.7214 62.1592 92.7489 61.9867 92.7646C61.8143 92.7764 58.5672 92.7922 47.8584 92.8197Z" fill="white"/>
<path d="M71.4695 67.0432V65.1375V63.2318H80.7463L80.7607 67.0432H71.4695Z" fill="white"/>
<path d="M98.2894 78.0061V63.2632C98.2894 63.2436 100.315 63.2318 107.293 63.2318L107.303 68.4892C107.308 71.3773 107.312 73.7703 107.322 73.8017C107.327 73.8331 107.332 74.2339 107.336 74.6858C107.336 75.1416 107.351 75.5031 107.36 75.4913C107.375 75.4795 108.002 73.9235 108.754 72.0335C109.506 70.1435 110.129 68.5914 110.133 68.5875C110.138 68.5796 111.833 68.5796 117.662 68.5953L114.046 78.2418L115.167 81.7311C115.726 83.466 116.634 86.2945 117.291 88.3425L117.49 88.9611C118.151 91.0161 118.692 92.7293 118.692 92.7607C118.692 92.8118 118.184 92.8197 114.429 92.8197C112.083 92.8197 110.157 92.8079 110.148 92.7921C110.133 92.7725 109.884 91.8688 109.592 90.7764C109.3 89.684 108.989 88.517 108.898 88.183C108.811 87.8491 108.443 86.4699 108.083 85.1182C107.724 83.7665 107.413 82.627 107.394 82.5837C107.37 82.5405 107.341 82.9649 107.322 83.5661C107.303 84.1516 107.288 85.1142 107.293 85.7076C107.298 86.3009 107.298 88.1438 107.293 92.8197H102.791C99.2233 92.8197 98.2894 92.8118 98.2894 92.7725V78.0061Z" fill="white"/>
<path d="M96.0624 68.2063C96.2444 68.1749 96.4599 68.1395 96.5413 68.1317C96.618 68.1238 96.7425 68.112 96.9484 68.1042V76.6112L96.254 76.6426C95.8708 76.6583 95.3488 76.6976 95.0902 76.729C94.8364 76.7605 94.4389 76.8312 94.2042 76.8862C93.9743 76.9412 93.6534 77.0395 93.4858 77.1063C93.323 77.177 93.0595 77.3145 92.9015 77.4128C92.7482 77.511 92.5327 77.6839 92.4321 77.79C92.3268 77.9 92.1927 78.065 92.1352 78.1633C92.0729 78.2615 91.9915 78.4383 91.9484 78.5562C91.9053 78.6741 91.8383 78.9845 91.8 79.2438C91.7616 79.5032 91.7185 79.9904 91.6994 80.3244C91.685 80.6584 91.6659 81.0592 91.6563 81.2085C91.6467 81.3617 91.6371 84.0337 91.6323 92.8197L87.1639 92.8157C84.7118 92.8157 82.6716 92.8039 82.6381 92.7961C82.5902 92.7843 82.5806 90.3245 82.5806 68.5757H87.1065C89.5969 68.5757 91.6323 68.5835 91.6323 68.5953C91.6323 68.6071 91.5653 69.2555 91.4839 70.0413C91.4072 70.8233 91.345 71.4991 91.3546 71.5423C91.3689 71.5973 91.4168 71.5502 91.5318 71.3655C91.6228 71.2241 91.7904 70.9765 91.9101 70.8154C92.0298 70.6543 92.2454 70.3871 92.3938 70.226C92.5375 70.0649 92.8297 69.782 93.0404 69.6012C93.2559 69.4205 93.5911 69.1729 93.7875 69.0511C93.9839 68.9293 94.3622 68.7407 94.6256 68.6307C94.889 68.5207 95.2434 68.391 95.4159 68.3478C95.5883 68.3006 95.8756 68.2378 96.0624 68.2063Z" fill="white"/>
<path d="M71.4695 92.8197V80.6977V68.5757H80.7607V80.678C80.7607 91.4012 80.7511 92.7843 80.6889 92.8C80.6505 92.8118 78.5576 92.8197 71.4695 92.8197Z" fill="white"/>
<path d="M47.8584 95.4916V94.8433V94.1949H118.716L118.692 95.472L47.8584 95.4916Z" fill="white"/>
<path d="M57.2881 78.0249C57.2881 72.7088 57.2881 68.3435 57.2929 68.3238C57.2977 68.3081 57.518 68.3042 57.7862 68.3199C58.0496 68.3317 58.3992 68.3631 58.5572 68.3867C58.7153 68.4063 58.95 68.4574 59.0841 68.5006C59.2134 68.5399 59.4193 68.6381 59.5295 68.7207C59.6444 68.8032 59.7881 68.9564 59.8503 69.0664C59.9126 69.1725 59.9844 69.3611 60.0132 69.479C60.0419 69.5969 60.085 70.0055 60.1138 70.3827C60.1473 70.8306 60.1569 73.5417 60.1425 78.1035C60.1329 81.9737 60.109 85.2428 60.0946 85.3724C60.0754 85.5021 60.0275 85.8046 59.9892 86.0404C59.9509 86.2761 59.8887 86.5708 59.8503 86.6887C59.812 86.8066 59.7258 86.9755 59.6636 87.062C59.6013 87.1484 59.448 87.2781 59.3187 87.3488C59.1894 87.4195 58.9452 87.5138 58.7728 87.557C58.6003 87.6003 58.2076 87.6553 57.9011 87.6828C57.5946 87.7103 57.3312 87.7221 57.3168 87.7103C57.3025 87.6985 57.2881 83.3411 57.2881 78.0249Z" fill="#E3001B"/>
</g>
<defs>
<filter id="filter0_dd_164_1121" x="0.651367" y="0.833008" width="165" height="166" filterUnits="userSpaceOnUse" color-interpolation-filters="sRGB">
<feFlood flood-opacity="0" result="BackgroundImageFix"/>
<feColorMatrix in="SourceAlpha" type="matrix" values="0 0 0 0 0 0 0 0 0 0 0 0 0 0 0 0 0 0 127 0" result="hardAlpha"/>
<feMorphology radius="1" operator="erode" in="SourceAlpha" result="effect1_dropShadow_164_1121"/>
<feOffset dy="4"/>
<feGaussianBlur stdDeviation="3"/>
<feComposite in2="hardAlpha" operator="out"/>
<feColorMatrix type="matrix" values="0 0 0 0 0 0 0 0 0 0.698039 0 0 0 0 0.027451 0 0 0 0.1 0"/>
<feBlend mode="normal" in2="BackgroundImageFix" result="effect1_dropShadow_164_1121"/>
<feColorMatrix in="SourceAlpha" type="matrix" values="0 0 0 0 0 0 0 0 0 0 0 0 0 0 0 0 0 0 127 0" result="hardAlpha"/>
<feMorphology radius="2" operator="erode" in="SourceAlpha" result="effect2_dropShadow_164_1121"/>
<feOffset dy="2"/>
<feGaussianBlur stdDeviation="2"/>
<feComposite in2="hardAlpha" operator="out"/>
<feColorMatrix type="matrix" values="0 0 0 0 0.172549 0 0 0 0 0.454902 0 0 0 0 0.184314 0 0 0 0.1 0"/>
<feBlend mode="normal" in2="effect1_dropShadow_164_1121" result="effect2_dropShadow_164_1121"/>
<feBlend mode="normal" in="SourceGraphic" in2="effect2_dropShadow_164_1121" result="shape"/>
</filter>
</defs>
</svg>
