<svg width="166" height="167" viewBox="0 0 166 167" fill="none" xmlns="http://www.w3.org/2000/svg">
<g filter="url(#filter0_dd_164_1127)">
<path d="M5.5144 7.11162C5.5144 3.89201 8.12442 1.28198 11.344 1.28198H154.685C157.904 1.28198 160.514 3.892 160.514 7.11162V151.452C160.514 154.672 157.904 157.282 154.685 157.282H11.344C8.12442 157.282 5.5144 154.672 5.5144 151.452V7.11162Z" fill="white" shape-rendering="crispEdges"/>
<path d="M130.524 70.8487C123.497 70.8487 117.8 74.6228 117.8 79.2702C117.8 83.9196 123.497 87.6814 130.524 87.6814C137.556 87.6814 143.252 83.9189 143.252 79.2702C143.252 74.6228 137.556 70.8487 130.524 70.8487ZM62.6297 71.1724V87.3446H66.5751V77.8867L72.4187 87.3446H75.4862L81.3366 78.0276V87.3446H90.8411V71.1724H81.7982L76.9679 78.1869L72.6373 71.1724H62.6297ZM27.9711 71.188V83.5123C27.9711 84.9196 26.872 85.6974 24.6919 85.6974C24.0308 85.6974 23.4057 85.5288 22.7764 85.2901V87.0444C23.8501 87.3872 25.041 87.6814 27.0827 87.6814C31.7731 87.6814 37.5241 85.9114 37.5241 83.0529V71.188H27.9711ZM40.7373 71.188V82.0478C40.7373 85.7691 43.6768 87.7153 49.9953 87.7153C57.0747 87.7153 59.177 85.8092 59.177 82.0478V71.188H55.2941V83.2878C55.295 84.4629 54.7553 85.9584 52.7575 85.9584C50.788 85.9584 50.2348 84.4689 50.2348 83.2983V71.188H40.7373ZM94.266 71.188V87.3733H104.902C112.684 87.3733 116.015 85.5807 116.02 82.5987C116.04 80.5867 115.519 78.7721 110.981 78.32C114.34 77.9753 115.26 76.7636 115.26 75.1352C115.26 71.9384 110.665 71.188 104.863 71.188H94.266ZM130.521 72.4411C132.812 72.4411 133.397 75.2831 133.397 79.2702C133.397 83.2431 132.812 86.0837 130.521 86.0837C128.221 86.0837 127.652 83.2438 127.651 79.2702C127.651 75.2831 128.22 72.4411 130.521 72.4411ZM104.534 72.6943C106.911 72.6943 108.167 73.6328 108.167 75.1404C108.167 75.9165 107.587 76.6726 106.626 77.08C105.749 77.4687 104.768 77.4953 103.805 77.5212V72.7413C104.085 72.7413 104.26 72.6943 104.534 72.6943ZM104.19 79.004C105.068 78.9908 105.852 79.1699 106.741 79.7036C107.845 80.3561 108.486 81.3793 108.486 82.5673C108.486 83.5562 107.986 84.4322 107.109 85.0369C106.095 85.7379 105.028 85.8865 103.809 85.7887V79.0222C103.938 79.013 104.065 79.0058 104.19 79.004Z" fill="#FFCC00"/>
</g>
<defs>
<filter id="filter0_dd_164_1127" x="0.514404" y="0.281982" width="165" height="166" filterUnits="userSpaceOnUse" color-interpolation-filters="sRGB">
<feFlood flood-opacity="0" result="BackgroundImageFix"/>
<feColorMatrix in="SourceAlpha" type="matrix" values="0 0 0 0 0 0 0 0 0 0 0 0 0 0 0 0 0 0 127 0" result="hardAlpha"/>
<feMorphology radius="1" operator="erode" in="SourceAlpha" result="effect1_dropShadow_164_1127"/>
<feOffset dy="4"/>
<feGaussianBlur stdDeviation="3"/>
<feComposite in2="hardAlpha" operator="out"/>
<feColorMatrix type="matrix" values="0 0 0 0 0 0 0 0 0 0.698039 0 0 0 0 0.027451 0 0 0 0.1 0"/>
<feBlend mode="normal" in2="BackgroundImageFix" result="effect1_dropShadow_164_1127"/>
<feColorMatrix in="SourceAlpha" type="matrix" values="0 0 0 0 0 0 0 0 0 0 0 0 0 0 0 0 0 0 127 0" result="hardAlpha"/>
<feMorphology radius="2" operator="erode" in="SourceAlpha" result="effect2_dropShadow_164_1127"/>
<feOffset dy="2"/>
<feGaussianBlur stdDeviation="2"/>
<feComposite in2="hardAlpha" operator="out"/>
<feColorMatrix type="matrix" values="0 0 0 0 0.172549 0 0 0 0 0.454902 0 0 0 0 0.184314 0 0 0 0.1 0"/>
<feBlend mode="normal" in2="effect1_dropShadow_164_1127" result="effect2_dropShadow_164_1127"/>
<feBlend mode="normal" in="SourceGraphic" in2="effect2_dropShadow_164_1127" result="shape"/>
</filter>
</defs>
</svg>
