<svg width="167" height="167" viewBox="0 0 167 167" fill="none" xmlns="http://www.w3.org/2000/svg">
<g filter="url(#filter0_dd_164_1077)">
<path d="M5.60547 7.8899C5.60547 4.57619 8.29176 1.88989 11.6055 1.88989H155.605C158.919 1.88989 161.605 4.57618 161.605 7.88989V151.89C161.605 155.204 158.919 157.89 155.605 157.89H11.6055C8.29176 157.89 5.60547 155.204 5.60547 151.89V7.8899Z" fill="white" shape-rendering="crispEdges"/>
<path d="M129.219 128.056V31.7252H37.9951V128.056H129.219ZM125.569 124.386H41.644V35.3951H125.569L125.569 124.386Z" fill="#C51718"/>
<path d="M46.2023 100.532H121.006V119.798H46.2023V100.532Z" fill="#202B78"/>
<path d="M114.166 117.505V102.825H107.604V117.505H114.166ZM106.13 110.166C106.137 108.227 105.378 106.364 104.019 104.987C102.661 103.61 100.814 102.833 98.8851 102.825H89.1885V117.505H98.8851C100.813 117.498 102.66 116.721 104.019 115.345C105.377 113.968 106.137 112.106 106.13 110.166ZM100.104 110.165C100.104 111.927 98.7776 113.355 97.139 113.355H95.7342V106.976H97.1409C98.7795 106.976 100.104 108.404 100.104 110.165ZM75.5332 117.505H87.9251V113.264H82.1961V102.825H75.5332V117.505ZM68.0557 117.505H74.6712L67.1951 102.825H60.522L53.0457 117.505H59.6613L60.3645 115.962H67.3524L68.0557 117.505ZM65.3894 112.098H62.3284L63.8209 108.84L65.3894 112.098Z" fill="white"/>
<path d="M108.946 98.6969C109.969 96.8638 110.487 94.7891 110.446 92.6873C110.4 90.2219 109.385 88.6366 107.998 86.543L87.7298 55.9375L91.0284 50.9321L113.588 84.8616C115.445 87.6518 116.507 89.7353 116.581 92.8467C116.558 94.872 116.098 96.8682 115.233 98.697L108.946 98.6969ZM83.2787 39.9814L53.6255 84.8616C51.7689 87.6518 50.7066 89.7353 50.6326 92.8467C50.6557 94.8719 51.1154 96.8679 51.9802 98.697H58.2681C57.2448 96.8639 56.7267 94.7892 56.7675 92.6874C56.8145 90.2221 57.829 88.6367 59.2157 86.5431L89.8619 39.9814H83.2787ZM64.7596 87.6985H100.622L98.1724 83.9999H67.1745L65.7408 86.1624C65.4125 86.6567 65.0739 87.1865 64.7596 87.6985Z" fill="#00B6ED"/>
<path d="M116.163 98.6971C116.329 98.3355 116.412 98.1199 116.541 97.7754C117.031 96.4738 117.619 94.6919 117.575 92.834C117.497 89.5735 116.37 87.3876 114.493 84.5702L91.5641 50.1326L94.2165 46.1353L119.159 83.756C121.348 87.0602 122.375 88.9875 122.375 92.0559C122.375 95.5522 121.449 97.0939 120.743 98.6972L116.163 98.6971ZM102.166 98.6971H107.874C108.942 96.8831 109.488 94.8061 109.45 92.6981C109.406 90.4023 108.479 88.9319 107.089 86.8351L87.1612 56.7689L84.5741 60.6766L101.472 86.1625C102.977 88.4325 104.234 90.4756 104.346 92.5514C104.406 93.67 104.244 94.7894 103.87 95.8445C103.496 96.8996 102.916 97.8694 102.166 98.6971ZM76.8611 39.9816L48.0534 83.756C45.8636 87.0595 44.8367 88.9875 44.8354 92.0559C44.8354 95.5528 45.7627 97.0933 46.468 98.6972H51.0693C50.947 98.4241 50.8169 98.1124 50.6876 97.7686C50.0711 96.1975 49.7558 94.5232 49.7584 92.8342C49.8359 89.5736 50.9635 87.3877 52.8388 84.5697L82.2977 39.9817L76.8611 39.9816ZM90.8388 39.9816L60.0008 86.8351C58.6113 88.9319 57.6835 90.4023 57.6391 92.6981C57.6012 94.8061 58.1471 96.8832 59.2156 98.6971H65.046C64.2956 97.8693 63.7164 96.8996 63.3421 95.8445C62.9679 94.7895 62.8061 93.6701 62.8662 92.5515C62.8962 92.0022 62.9858 91.4579 63.1335 90.9282H102.377C102.116 90.0862 101.714 89.2952 101.188 88.5893H64.2275C64.654 87.8421 65.2141 86.954 65.7398 86.1625L67.7632 83.1105H97.5806L95.9476 80.6465H69.3966L96.1456 39.9814L90.8388 39.9816Z" fill="#202B78"/>
</g>
<defs>
<filter id="filter0_dd_164_1077" x="0.605469" y="0.889893" width="166" height="166" filterUnits="userSpaceOnUse" color-interpolation-filters="sRGB">
<feFlood flood-opacity="0" result="BackgroundImageFix"/>
<feColorMatrix in="SourceAlpha" type="matrix" values="0 0 0 0 0 0 0 0 0 0 0 0 0 0 0 0 0 0 127 0" result="hardAlpha"/>
<feMorphology radius="1" operator="erode" in="SourceAlpha" result="effect1_dropShadow_164_1077"/>
<feOffset dy="4"/>
<feGaussianBlur stdDeviation="3"/>
<feComposite in2="hardAlpha" operator="out"/>
<feColorMatrix type="matrix" values="0 0 0 0 0 0 0 0 0 0.698039 0 0 0 0 0.027451 0 0 0 0.1 0"/>
<feBlend mode="normal" in2="BackgroundImageFix" result="effect1_dropShadow_164_1077"/>
<feColorMatrix in="SourceAlpha" type="matrix" values="0 0 0 0 0 0 0 0 0 0 0 0 0 0 0 0 0 0 127 0" result="hardAlpha"/>
<feMorphology radius="2" operator="erode" in="SourceAlpha" result="effect2_dropShadow_164_1077"/>
<feOffset dy="2"/>
<feGaussianBlur stdDeviation="2"/>
<feComposite in2="hardAlpha" operator="out"/>
<feColorMatrix type="matrix" values="0 0 0 0 0.172549 0 0 0 0 0.454902 0 0 0 0 0.184314 0 0 0 0.1 0"/>
<feBlend mode="normal" in2="effect1_dropShadow_164_1077" result="effect2_dropShadow_164_1077"/>
<feBlend mode="normal" in="SourceGraphic" in2="effect2_dropShadow_164_1077" result="shape"/>
</filter>
</defs>
</svg>
