<svg width="59" height="59" viewBox="0 0 59 59" fill="none" xmlns="http://www.w3.org/2000/svg">
<g filter="url(#filter0_d_333_22719)">
<circle cx="29.4863" cy="27.8577" r="19.5" fill="white" stroke="#00B207"/>
<path d="M28.8667 18.7938C26.2148 18.7938 24.0576 20.8874 24.0576 23.4613V28.1288H28.8667C31.5187 28.1288 33.6758 26.0352 33.6758 23.4613C33.6758 20.8874 31.5187 18.7938 28.8667 18.7938ZM28.8667 25.5164H26.7493V23.4613C26.7493 22.3281 27.6992 21.4062 28.8667 21.4062C30.0342 21.4062 30.9849 22.3281 30.9849 23.4613C30.9849 24.5944 30.035 25.5164 28.8667 25.5164Z" fill="#002401"/>
<path d="M26.4217 18.7788C26.4107 18.7581 25.3784 18.9137 25.3071 18.9187C24.5564 18.9701 23.7808 18.9494 23.0529 18.7503C22.6603 18.6425 21.6221 18.2608 21.3361 17.3816C21.2957 17.256 21.1685 16.845 21.3582 16.3969C21.5508 15.9409 21.9493 15.7361 22.0655 15.6783C22.4169 15.5042 22.7426 15.5128 22.8926 15.5128C23.7727 15.5163 24.516 16.0836 25.0667 16.7002C25.6262 17.3267 26.0283 18.0481 26.4217 18.7788Z" fill="#00B207"/>
<path d="M26.7625 18.6868C26.7743 18.6797 26.6478 18.1152 26.642 18.076C26.5861 17.6636 26.5714 17.234 26.6633 16.8251C26.7125 16.6046 26.9015 16.018 27.4066 15.8304C27.4786 15.8033 27.7154 15.7191 27.9845 15.8082C28.2587 15.8989 28.3925 16.1122 28.43 16.1743C28.544 16.3627 28.5506 16.5425 28.555 16.6253C28.5829 17.1112 28.2764 17.5415 27.9337 17.8669C27.586 18.1973 27.1765 18.4449 26.7618 18.6868H26.7625Z" fill="#00B207"/>
<path d="M29.7757 25.3174C28.3758 24.8421 27.3649 23.5648 27.3267 22.0527C26.9694 22.4209 26.7495 22.9162 26.7495 23.4613V24.491C26.9502 24.8785 27.2208 25.226 27.5472 25.5164H28.8677C29.1927 25.5164 29.5007 25.4451 29.7764 25.3174H29.7757Z" fill="#00B207"/>
<path d="M30.9255 23.9405C30.9638 23.7863 30.9844 23.6251 30.9844 23.4595C30.9844 22.4784 30.2719 21.6556 29.3228 21.4529C29.4647 22.4905 30.0675 23.3867 30.9255 23.9405Z" fill="#00B207"/>
<path d="M27.7366 40.2026C28.4472 40.2026 29.0232 39.6435 29.0232 38.9538C29.0232 38.2642 28.4472 37.7051 27.7366 37.7051C27.026 37.7051 26.45 38.2642 26.45 38.9538C26.45 39.6435 27.026 40.2026 27.7366 40.2026Z" fill="#00B207"/>
<path d="M32.6629 40.2026C33.3735 40.2026 33.9495 39.6435 33.9495 38.9538C33.9495 38.2642 33.3735 37.7051 32.6629 37.7051C31.9523 37.7051 31.3762 38.2642 31.3762 38.9538C31.3762 39.6435 31.9523 40.2026 32.6629 40.2026Z" fill="#00B207"/>
<path d="M34.0059 26.955L31.5679 28.5092C32.6972 29.0365 33.4788 30.1576 33.4788 31.4527C33.4788 33.2531 31.9693 34.718 30.1144 34.718C28.2594 34.718 26.7493 33.2531 26.7493 31.4527V28.1866L29.3225 28.1067C31.4804 28.0268 32.77 26.1843 32.7766 26.1751C31.9723 25.7912 31.0694 25.575 30.1144 25.575H24.0583V31.4527C24.0583 34.6938 26.775 37.3304 30.1144 37.3304C33.4538 37.3304 36.1704 34.6938 36.1704 31.4527C36.1704 29.6488 35.3278 28.0332 34.0059 26.9543V26.955Z" fill="#002401"/>
<path d="M33.732 30.2641L37.7156 27.6366L36.2026 25.4759L32.2191 28.1035L33.732 30.2641Z" fill="#002401"/>
</g>
<defs>
<filter id="filter0_d_333_22719" x="0" y="0.857666" width="58.4863" height="58.1423" filterUnits="userSpaceOnUse" color-interpolation-filters="sRGB">
<feFlood flood-opacity="0" result="BackgroundImageFix"/>
<feColorMatrix in="SourceAlpha" type="matrix" values="0 0 0 0 0 0 0 0 0 0 0 0 0 0 0 0 0 0 127 0" result="hardAlpha"/>
<feOffset dy="2"/>
<feGaussianBlur stdDeviation="4.5"/>
<feComposite in2="hardAlpha" operator="out"/>
<feColorMatrix type="matrix" values="0 0 0 0 0 0 0 0 0 0.207843 0 0 0 0 0.00392157 0 0 0 0.1 0"/>
<feBlend mode="normal" in2="BackgroundImageFix" result="effect1_dropShadow_333_22719"/>
<feBlend mode="normal" in="SourceGraphic" in2="effect1_dropShadow_333_22719" result="shape"/>
</filter>
</defs>
</svg>
