<svg width="174" height="49" viewBox="0 0 174 49" fill="none" xmlns="http://www.w3.org/2000/svg">
<path d="M28.3896 36.1528C26.952 35.321 25.8312 34.1499 25.0272 32.6395C24.2219 31.129 23.8206 29.414 23.8206 27.4944C23.8206 25.5748 24.2219 23.8597 25.0272 22.3493C25.8312 20.8388 26.952 19.6677 28.3896 18.8359C29.8273 18.0042 31.4693 17.5876 33.3159 17.5876C34.6866 17.5876 35.9602 17.8179 37.134 18.2786C38.3078 18.7392 39.2898 19.4056 40.0812 20.2753L40.4371 18.0103H44.9872V36.9797H40.4371L40.0812 34.6754C39.2633 35.5721 38.2737 36.2496 37.1138 36.7102C35.9526 37.1708 34.6866 37.4011 33.3159 37.4011C31.4693 37.4011 29.8273 36.9846 28.3896 36.1528ZM30.5454 31.4108C31.5476 32.4349 32.8262 32.9469 34.3824 32.9469C35.9387 32.9469 37.2577 32.4349 38.2599 31.4108C39.262 30.3866 39.7631 29.082 39.7631 27.4944C39.7631 25.9068 39.262 24.6021 38.2599 23.578C37.2577 22.5539 35.9652 22.0418 34.3824 22.0418C32.7997 22.0418 31.5476 22.5539 30.5454 23.578C29.5433 24.6021 29.0422 25.908 29.0422 27.4944C29.0422 29.0808 29.5433 30.3879 30.5454 31.4108Z" fill="#002401"/>
<path d="M50.0511 18.0077H54.6012L55.0367 20.3879C56.4604 18.5443 58.2931 17.623 60.536 17.623C61.4851 17.623 62.4015 17.77 63.285 18.0653C64.1685 18.3593 64.9132 18.7893 65.5203 19.3515L63.2257 23.3071C62.2235 22.6419 61.1683 22.3087 60.0601 22.3087C58.6086 22.3087 57.455 22.7828 56.598 23.7298C55.741 24.6767 55.3118 26.0083 55.3118 27.7233V36.9771H50.0498V18.0077H50.0511Z" fill="#002401"/>
<path d="M71.218 47.0183C69.6087 46.2894 68.3958 45.264 67.5779 43.9459C66.76 42.6278 66.404 41.11 66.5101 39.3962H71.613C71.56 40.7266 72.0094 41.7764 72.9585 42.5445C73.9077 43.3126 75.2267 43.696 76.9154 43.696C78.4717 43.696 79.7301 43.3628 80.6931 42.6976C81.6562 42.0312 82.1371 41.1614 82.1371 40.0859C82.1371 39.0103 81.6877 38.1332 80.7916 37.5329C79.8942 36.9315 78.6282 36.6301 76.9937 36.6301C74.8303 36.6301 72.9446 36.2405 71.3366 35.459C69.7274 34.6786 68.4879 33.5712 67.6183 32.138C66.7474 30.7047 66.3132 29.0276 66.3132 27.108C66.3132 25.1884 66.7612 23.6204 67.6586 22.1736C68.5548 20.7281 69.8081 19.595 71.4174 18.7754C73.0254 17.9559 74.8455 17.5468 76.8776 17.5468C78.7494 17.5468 80.3852 17.9179 81.7837 18.6603L84.1969 15.7803L87.9948 18.5451L85.3443 21.5783C86.0826 22.4236 86.6228 23.2872 86.9662 24.1704C87.3082 25.0537 87.4811 26.0325 87.4811 27.108C87.4811 28.6699 87.0987 30.0517 86.3338 31.2547C85.5689 32.4577 84.4607 33.4303 83.0105 34.1727C84.4342 34.7619 85.5361 35.568 86.3136 36.5921C87.0911 37.6162 87.4811 38.8192 87.4811 40.201C87.4811 41.7887 87.0457 43.1766 86.176 44.3673C85.3051 45.558 84.072 46.4793 82.4766 47.1322C80.8799 47.7851 79.0271 48.111 76.918 48.111C74.8089 48.111 72.8298 47.7459 71.2205 47.017L71.218 47.0183ZM73.0178 30.7757C74.0074 31.7104 75.3062 32.1772 76.9142 32.1772C78.5222 32.1772 79.8222 31.7104 80.8105 30.7757C81.8001 29.841 82.2936 28.6197 82.2936 27.1092C82.2936 25.5988 81.7988 24.3383 80.8105 23.4036C79.821 22.4689 78.5222 22.0021 76.9142 22.0021C75.3062 22.0021 74.0061 22.4689 73.0178 23.4036C72.0283 24.3383 71.5335 25.5731 71.5335 27.1092C71.5335 28.6454 72.0283 29.8423 73.0178 30.7757Z" fill="#002401"/>
<path d="M95.0939 36.1528C93.6562 35.321 92.5354 34.1499 91.7314 32.6395C90.9262 31.129 90.5248 29.414 90.5248 27.4944C90.5248 25.5748 90.9262 23.8597 91.7314 22.3493C92.5354 20.8388 93.6562 19.6677 95.0939 18.8359C96.5315 18.0042 98.1736 17.5876 100.02 17.5876C101.391 17.5876 102.664 17.8179 103.838 18.2786C105.012 18.7392 105.994 19.4056 106.785 20.2753L107.141 18.0103H111.691V36.9797H107.141L106.785 34.6754C105.967 35.5721 104.979 36.2496 103.818 36.7102C102.657 37.1708 101.391 37.4011 100.02 37.4011C98.1736 37.4011 96.5315 36.9846 95.0939 36.1528ZM97.2497 31.4108C98.2518 32.4349 99.5304 32.9469 101.088 32.9469C102.645 32.9469 103.962 32.4349 104.965 31.4108C105.968 30.3866 106.469 29.082 106.469 27.4944C106.469 25.9068 105.968 24.6021 104.965 23.578C103.963 22.5539 102.671 22.0418 101.088 22.0418C99.5052 22.0418 98.2518 22.5539 97.2497 23.578C96.2475 24.6021 95.7464 25.908 95.7464 27.4944C95.7464 29.0808 96.2475 30.3879 97.2497 31.4108Z" fill="#002401"/>
<path d="M117.111 10.5586C117.718 9.99636 118.482 9.71338 119.406 9.71338C120.33 9.71338 121.1 9.99513 121.721 10.5586C122.34 11.1222 122.651 11.8388 122.651 12.7086C122.651 13.5783 122.34 14.2508 121.721 14.8009C121.101 15.3509 120.33 15.6265 119.406 15.6265C118.482 15.6265 117.718 15.3521 117.111 14.8009C116.504 14.2508 116.201 13.5526 116.201 12.7086C116.201 11.8645 116.504 11.1209 117.111 10.5586ZM116.755 18.008H122.017V36.9774H116.755V18.008Z" fill="#002401"/>
<path d="M127.079 18.0077H131.629L131.985 20.1968C132.75 19.3773 133.686 18.7439 134.795 18.2956C135.903 17.8484 137.102 17.623 138.394 17.623C140.9 17.623 142.892 18.4107 144.368 19.9849C145.845 21.559 146.583 23.6906 146.583 26.3783V36.9759H141.321V26.6845C141.321 25.2255 140.945 24.0924 140.194 23.2863C139.442 22.4802 138.407 22.0772 137.088 22.0772C135.664 22.0772 134.517 22.5378 133.646 23.459C132.775 24.3803 132.341 25.571 132.341 27.03V36.9747H127.079V18.0053V18.0077Z" fill="#002401"/>
<path fill-rule="evenodd" clip-rule="evenodd" d="M8.25589 5.73657C3.70287 5.73657 0 9.33043 0 13.7494V27.3661C0 32.9317 4.66212 37.4566 10.3965 37.4566C16.131 37.4566 20.7931 32.9317 20.7931 27.3661C20.7931 23.4139 18.4416 19.9866 15.0255 18.3316C15.9619 17.0325 16.5118 15.4523 16.5118 13.7494C16.5118 9.33043 12.8089 5.73657 8.25589 5.73657ZM4.62083 21.761H8.25589C8.29158 21.761 8.32722 21.7608 8.3628 21.7604H10.3978C13.5804 21.7604 16.1735 24.2779 16.1735 27.3673C16.1735 30.4566 13.5818 32.973 10.3978 32.973C7.2134 32.973 4.62083 30.4574 4.62083 27.3673V21.761ZM4.61956 13.7482C4.61956 11.8032 6.25192 10.2189 8.25589 10.2189C10.2597 10.2189 11.8922 11.8042 11.8922 13.7482C11.8922 15.6688 10.2984 17.2388 8.32674 17.2756H4.61956V13.7482Z" fill="#002401"/>
<path d="M158.009 5.63281C153.456 5.63281 149.753 9.22702 149.753 13.6457V21.6585H158.009C162.561 21.6585 166.265 18.0643 166.265 13.6457C166.265 9.22702 162.561 5.63281 158.009 5.63281ZM158.009 17.1737H154.374V13.6457C154.374 11.7003 156.004 10.1176 158.009 10.1176C160.013 10.1176 161.645 11.7003 161.645 13.6457C161.645 15.591 160.014 17.1737 158.009 17.1737Z" fill="#002401"/>
<path d="M153.811 5.60703C153.792 5.5715 152.02 5.83856 151.898 5.84713C150.609 5.93533 149.277 5.89981 148.028 5.55803C147.354 5.37305 145.572 4.71767 145.081 3.20844C145.011 2.99284 144.793 2.28723 145.119 1.51792C145.449 0.735129 146.133 0.383549 146.333 0.284322C146.936 -0.0145823 147.495 0.00011789 147.753 0.00011789C149.264 0.00624298 150.54 0.980133 151.485 2.03855C152.445 3.11412 153.136 4.35261 153.811 5.60703Z" fill="#00B207"/>
<path d="M154.396 5.44901C154.417 5.43676 154.2 4.46777 154.189 4.4004C154.094 3.69234 154.068 2.95487 154.226 2.25294C154.311 1.87441 154.635 0.86744 155.502 0.54526C155.626 0.49871 156.032 0.354157 156.494 0.507285C156.965 0.662862 157.195 1.02914 157.259 1.13572C157.455 1.45912 157.466 1.76783 157.474 1.90993C157.522 2.74417 156.995 3.48286 156.407 4.04147C155.81 4.60865 155.107 5.03373 154.395 5.44901H154.396Z" fill="#00B207"/>
<path d="M159.569 16.832C157.166 16.0161 155.43 13.8234 155.365 11.2275C154.751 11.8596 154.374 12.7098 154.374 13.6457V15.4134C154.718 16.0786 155.183 16.6752 155.743 17.1738H158.01C158.568 17.1738 159.097 17.0513 159.57 16.832H159.569Z" fill="#00B207"/>
<path d="M161.543 14.4682C161.609 14.2036 161.644 13.9267 161.644 13.6425C161.644 11.9581 160.421 10.5457 158.792 10.1978C159.035 11.9789 160.07 13.5176 161.543 14.4682Z" fill="#00B207"/>
<path d="M156.068 42.386C157.288 42.386 158.277 41.4261 158.277 40.2422C158.277 39.0582 157.288 38.0984 156.068 38.0984C154.848 38.0984 153.86 39.0582 153.86 40.2422C153.86 41.4261 154.848 42.386 156.068 42.386Z" fill="#00B207"/>
<path d="M164.525 42.386C165.745 42.386 166.734 41.4261 166.734 40.2422C166.734 39.0582 165.745 38.0984 164.525 38.0984C163.306 38.0984 162.317 39.0582 162.317 40.2422C162.317 41.4261 163.306 42.386 164.525 42.386Z" fill="#00B207"/>
<path d="M166.831 19.6431L162.646 22.3112C164.584 23.2165 165.926 25.141 165.926 27.3644C165.926 30.4551 163.335 32.9701 160.15 32.9701C156.966 32.9701 154.373 30.4551 154.373 27.3644V21.7575L158.791 21.6203C162.495 21.4831 164.709 18.3201 164.721 18.3042C163.34 17.6451 161.79 17.2739 160.15 17.2739H149.754V27.3644C149.754 32.9284 154.417 37.4549 160.15 37.4549C165.883 37.4549 170.547 32.9284 170.547 27.3644C170.547 24.2676 169.1 21.4941 166.831 19.6419V19.6431Z" fill="#002401"/>
<path d="M166.361 25.3245L173.2 20.8137L170.603 17.1044L163.764 21.6152L166.361 25.3245Z" fill="#002401"/>
</svg>
